<?xml version="1.0" encoding="utf-8"?>
<!-- Generator: Adobe Illustrator 22.0.1, SVG Export Plug-In . SVG Version: 6.00 Build 0)  -->
<svg version="1.1" id="Layer_1" xmlns="http://www.w3.org/2000/svg" xmlns:xlink="http://www.w3.org/1999/xlink" x="0px" y="0px"
	 viewBox="0 0 480 120" style="enable-background:new 0 0 480 120;" xml:space="preserve">
<style type="text/css">
	.st0{fill:#434C5E;}
	.st1{fill:#9BEABB;}
	.st2{fill:#40C089;}
	.st3{fill:#39C564;}
	.st4{fill:#00C5FF;}
	.st5{fill:#AEE4FF;}
	.st6{fill:#C7A2FB;}
	.st7{fill:#3E4DE9;}
	.st8{fill:#366CED;}
	.st9{fill:#0054ED;}
	.st10{fill:#4F79ED;}
	.st11{fill:#00A2BB;}
	.st12{fill:#00B5BB;}
	.st13{fill:#00A689;}
	.st14{fill:#00B0FF;}
	.st15{fill:#5ED789;}
	.st16{fill:#5385B8;}
	.st17{fill:#9B67F7;}
	.st18{fill:#6A5CF7;}
	.st19{fill:#6AD1BB;}
	.st20{fill:#8891FB;}
</style>
<title>hometap-logo-horizontal</title>
<path class="st0" d="M454,91.6c-5.4,0-10.4-2-13.2-5.7v18.6l-8.3,2.9V51.2h8.3v5.5c3.2-4,8-6.4,13.1-6.3c10.3,0,19.6,7.9,19.6,20.5
	C473.5,83.6,463.9,91.6,454,91.6L454,91.6z M405.2,83.8c7.1,0,12.4-5.8,12.4-12.9c-0.2-6.9-6-12.2-12.8-12s-12.2,6-12,12.8
	C393,78.5,398.5,83.8,405.2,83.8z M453.2,83.8c7.1,0,12.4-5.8,12.4-12.9c-0.2-6.9-6-12.2-12.8-12s-12.2,6-12,12.8
	C441,78.5,446.5,83.8,453.2,83.8z M404,91.5c-10,0-19.5-8-19.5-20.5c0-12.6,9.3-20.5,19.6-20.5c5-0.1,9.8,2.1,13,5.9v-5.1h8.4v39.4
	h-8.4v-5.4C413.9,89.2,409.1,91.5,404,91.5L404,91.5z"/>
<path class="st0" d="M364,37.5l8.3-3v16.9h8.2v7.7h-8.2V75c0,7.2,1.1,8.3,8.2,8.3v8.1h-1.2c-11.7,0-15.2-3.8-15.2-16.4V59h-6.5v-7.7
	h6.5L364,37.5z"/>
<path class="st0" d="M335.1,57.9c-5.6-0.1-10.5,3.5-12.1,8.8h23.8C345.6,61.1,341.2,57.9,335.1,57.9z M346.4,78.1l7.6,2.7
	c-3.5,6.5-9.8,10.7-18.6,10.7c-12.5,0-20.9-8.9-20.9-20.3c-0.2-11.2,8.8-20.4,20-20.7c0.2,0,0.4,0,0.6,0c11.7,0,20.4,8.4,20.4,20.1
	v3.3h-32.8c1.1,6.1,5.9,10.1,12.8,10.1C339.9,84.1,344.1,81.9,346.4,78.1L346.4,78.1z"/>
<path class="st0" d="M246.5,91V51.8h8.4v4.7c2.7-3.6,7.1-5.7,11.7-5.5c6.3,0,10.8,2.7,13.1,7.1c2.9-4.5,8-7.2,13.4-7.1
	c10.8,0,16.4,6.4,16.4,16.5V91h-8.6V68c0-5.9-3.3-9.7-9.2-9.7c-5.3,0-9.4,3.6-9.4,10.6V91h-8.6V67.6c0-5.7-3.3-9.3-9-9.3
	c-5.6,0-9.7,3.7-9.7,10.9V91H246.5z"/>
<path class="st0" d="M220.1,83.6c7-0.3,12.4-6.2,12.1-13.1c-0.3-6.6-5.5-11.8-12.1-12.1c-6.8,0-12,5.7-12,12.6
	C208,77.9,213.3,83.6,220.1,83.6L220.1,83.6z M220.1,91.5c-11.3,0-20.5-9.1-20.6-20.4s9.1-20.5,20.4-20.6c11.3,0,20.5,9.1,20.6,20.4
	c0,0,0,0,0,0.1c0.1,11.2-8.9,20.4-20.1,20.5C220.3,91.5,220.2,91.5,220.1,91.5L220.1,91.5z"/>
<path class="st0" d="M156.5,90.5v-54l8.5-3v22c3-3.8,7.5-5.9,12.3-5.9c10.1,0,16.2,6.6,16.2,17.5v23.4h-8.7V67.9
	c0-6.7-3.2-10.8-9.7-10.8c-5.7,0-10.1,4.3-10.1,11.4v22H156.5z"/>
<g>
	<path class="st1" d="M105,89.5l-0.4,0.2l-1.3,0.5c-12.4,3.3-25.1,4.9-37.9,4.9c-13.6,0.2-27.1-1.7-40.1-5.5l0,0L25,89.5L8.9,79.8
		c6,16.9,19.3,30.2,36.3,36.3l0,0l0,0c12.8,4.5,26.8,4.5,39.6,0l0,0l0,0c16.9-6,30.3-19.3,36.3-36.3L105,89.5z"/>
	<path class="st2" d="M124.5,60l-7.7,10.9l-12.2,18.8l-19.9,26.4c16.9-6,30.3-19.3,36.3-36.3l0,0l0,0
		C123.4,73.5,124.5,66.8,124.5,60L124.5,60z"/>
	<path class="st3" d="M25.3,89.7L13.2,70.9L5.5,60l0,0c0,6.8,1.1,13.5,3.4,19.8l0,0l0,0c6,16.9,19.3,30.2,36.3,36.3L25.3,89.7z"/>
	<path class="st4" d="M20.7,20.3C10.9,31.2,5.5,45.4,5.5,60l0,0c0,6.8,1.1,13.5,3.4,19.8l0,0l0,0c3.3,9.4,9,17.8,16.4,24.5V15.7
		C23.7,17.1,22.2,18.7,20.7,20.3z"/>
	<path class="st5" d="M124.5,60c0-16.9-7.2-33-19.8-44.3v88.6c7.4-6.7,13.1-15.1,16.4-24.5l0,0l0,0C123.4,73.5,124.5,66.8,124.5,60
		L124.5,60z"/>
	<path class="st6" d="M121.1,40.2c-6-16.9-19.3-30.3-36.3-36.3l0,0l0,0C72-0.6,58-0.6,45.2,3.9l19.8,14L104.6,46l19.8,14
		C124.5,53.2,123.3,46.5,121.1,40.2z"/>
	<path class="st3" d="M65,106.7l-19.8,9.4c12.8,4.5,26.8,4.5,39.6,0L65,106.7z"/>
	<path class="st7" d="M65,0.5c-6.7,0-13.4,1.2-19.8,3.4l0,0l0,0C21.4,12.3,5.5,34.8,5.5,60l19.8-14L65,17.9l19.8-14
		C78.4,1.7,71.7,0.5,65,0.5z"/>
	<path class="st8" d="M25.3,15.7V46L45.2,3.9C37.9,6.5,31.1,10.5,25.3,15.7z"/>
	<path class="st9" d="M20.7,20.3C10.9,31.2,5.5,45.4,5.5,60l19.8-14V15.7C23.7,17.1,22.2,18.7,20.7,20.3z"/>
	<polygon class="st10" points="45.2,3.9 45.2,3.9 45.2,3.9 25.3,46 25.3,46 65,17.9 65,17.9 	"/>
	<path class="st11" d="M5.5,60L5.5,60c0,6.8,1.1,13.5,3.4,19.8l4.3-9L5.5,60z"/>
	<path class="st3" d="M5.5,60L5.5,60L5.5,60z"/>
	<path class="st3" d="M25.3,89.7v14.7c5.8,5.2,12.5,9.2,19.9,11.8L25.3,89.7z"/>
	<path class="st3" d="M8.9,79.8L8.9,79.8L8.9,79.8L8.9,79.8z"/>
	<path class="st3" d="M45.2,3.9L45.2,3.9L45.2,3.9z"/>
	<path class="st3" d="M8.9,79.8L8.9,79.8L8.9,79.8z"/>
	<path class="st3" d="M45.2,3.9L45.2,3.9L45.2,3.9z"/>
	<path class="st12" d="M13.2,70.9l-4.3,9l0,0l0,0l16.4,9.8L13.2,70.9z"/>
	<path class="st3" d="M45.2,116.1L45.2,116.1L45.2,116.1L45.2,116.1z"/>
	<path class="st3" d="M45.2,116.1L45.2,116.1L45.2,116.1z"/>
	<path class="st13" d="M25,89.5L8.9,79.8c3.3,9.4,9,17.8,16.4,24.5V89.7L25,89.5z"/>
	<polygon class="st14" points="5.5,60 5.5,60 13.2,70.9 25.3,46 	"/>
	<polygon class="st4" points="25.3,46 13.2,70.9 25.3,89.7 25.3,89.7 	"/>
	<path class="st15" d="M25.3,89.7l19.9,26.4l0,0l0,0l19.8-9.4l0,0L25.3,89.7z"/>
	<path class="st16" d="M124.5,60L124.5,60c0,6.8-1.1,13.5-3.4,19.8l-4.3-9L124.5,60z"/>
	<path class="st3" d="M124.5,60L124.5,60L124.5,60z"/>
	<path class="st17" d="M104.7,15.7V46L84.8,3.9C92.1,6.5,98.9,10.5,104.7,15.7z"/>
	<path class="st3" d="M104.7,89.7v14.7c-5.8,5.2-12.5,9.2-19.9,11.8L104.7,89.7z"/>
	<path class="st3" d="M121.1,79.8L121.1,79.8L121.1,79.8L121.1,79.8z"/>
	<path class="st3" d="M84.8,3.9L84.8,3.9L84.8,3.9z"/>
	<path class="st3" d="M121.1,79.8L121.1,79.8L121.1,79.8z"/>
	<path class="st3" d="M84.8,3.9L84.8,3.9L84.8,3.9z"/>
	<path class="st18" d="M109.3,20.3c9.8,10.9,15.2,25,15.2,39.7l-19.8-14V15.7C106.3,17.1,107.8,18.7,109.3,20.3z"/>
	<path class="st19" d="M116.8,70.9l4.3,9l0,0l0,0l-16.4,9.8L116.8,70.9z"/>
	<path class="st3" d="M84.8,116.1L84.8,116.1L84.8,116.1L84.8,116.1z"/>
	<path class="st3" d="M84.8,116.1L84.8,116.1L84.8,116.1z"/>
	<path class="st2" d="M105,89.5l16.1-9.6c-3.3,9.4-9,17.8-16.4,24.5V89.7L105,89.5z"/>
	<polygon class="st20" points="124.5,60 124.5,60 116.8,70.9 104.7,46 	"/>
	<polygon class="st5" points="104.7,46 116.8,70.9 104.7,89.7 104.7,89.7 	"/>
	<polygon class="st6" points="84.8,3.9 84.8,3.9 84.8,3.9 104.7,46 104.7,46 65,17.9 65,17.9 	"/>
	<path class="st15" d="M104.7,89.7l-19.9,26.4l0,0l0,0L65,106.7l0,0L104.7,89.7z"/>
	<path class="st1" d="M65.5,95.1c-13.6,0.2-27.1-1.7-40.1-5.5v0.1l39.7,17l38.8-16.6C91.3,93.4,78.4,95.1,65.5,95.1z"/>
</g>
</svg>
